<svg width="44" height="44" viewBox="0 0 44 44" fill="none" xmlns="http://www.w3.org/2000/svg">
<path d="M29.3877 30.5068L30.1514 14.5942H31.438C31.8115 14.5942 32.1187 14.2871 32.1187 13.9053C32.1187 13.5317 31.8115 13.2246 31.438 13.2246H26.5986V11.5645C26.5986 10.1035 25.5942 9.13232 24.0088 9.13232H19.9663C18.3892 9.13232 17.3848 10.1035 17.3848 11.5645V13.2246H12.562C12.1885 13.2246 11.873 13.54 11.873 13.9053C11.873 14.2871 12.1885 14.5942 12.562 14.5942H13.8486L14.6206 30.5151C14.687 31.9429 15.6748 32.8975 17.1274 32.8975H26.8809C28.3086 32.8975 29.313 31.9346 29.3877 30.5068ZM18.8457 11.6475C18.8457 10.9834 19.3354 10.4937 20.0659 10.4937H23.9175C24.6479 10.4937 25.146 10.9834 25.146 11.6475V13.2246H18.8457V11.6475ZM17.252 31.5195C16.5962 31.5195 16.0815 31.0132 16.0483 30.3574L15.2764 14.5942H28.6904L27.9517 30.3574C27.9185 31.0215 27.4204 31.5195 26.748 31.5195H17.252ZM25.1875 29.5024C25.5029 29.5024 25.7354 29.2534 25.7437 28.9048L26.0757 17.3086C26.084 16.9683 25.8516 16.6943 25.5361 16.6943C25.2373 16.6943 24.9966 16.9683 24.9883 17.3003L24.6479 28.8882C24.6396 29.2285 24.8721 29.5024 25.1875 29.5024ZM18.8042 29.5024C19.1279 29.5024 19.3604 29.2285 19.3521 28.8882L19.0117 17.3003C19.0034 16.9683 18.7544 16.6943 18.4556 16.6943C18.1484 16.6943 17.9077 16.96 17.916 17.3086L18.2646 28.9048C18.2729 29.2534 18.4971 29.5024 18.8042 29.5024ZM22.5645 28.8965V17.3003C22.5645 16.9683 22.3154 16.6943 22 16.6943C21.6929 16.6943 21.4355 16.9683 21.4355 17.3003V28.8965C21.4355 29.2285 21.6929 29.5024 22 29.5024C22.3071 29.5024 22.5645 29.2285 22.5645 28.8965Z" fill="#007AFF"/>
</svg>
