<svg width="24" height="19" viewBox="0 0 24 19" fill="none" xmlns="http://www.w3.org/2000/svg">
<g clip-path="url(#clip0)">
<path d="M3.48429 18.5662H20.9715C22.9613 18.5662 23.9754 17.5713 23.9754 15.6007V5.5847C23.9754 3.61406 22.9613 2.62873 20.9715 2.62873H18.2356C17.4798 2.62873 17.2503 2.47567 16.8197 1.99735L16.0544 1.13638C15.5761 0.61023 15.0883 0.323242 14.1029 0.323242H10.286C9.30063 0.323242 8.81274 0.61023 8.33441 1.13638L7.5691 1.99735C7.13862 2.4661 6.89945 2.62873 6.1533 2.62873H3.48429C1.48493 2.62873 0.480469 3.61406 0.480469 5.5847V15.6007C0.480469 17.5713 1.48493 18.5662 3.48429 18.5662ZM3.50343 17.026C2.56593 17.026 2.02065 16.5191 2.02065 15.5241V5.67081C2.02065 4.67592 2.56593 4.16891 3.50343 4.16891H6.53598C7.39694 4.16891 7.86568 4.00628 8.34401 3.47057L9.09016 2.62873C9.63545 2.01648 9.92243 1.86342 10.7643 1.86342H13.6246C14.4665 1.86342 14.7534 2.01648 15.2987 2.62873L16.0449 3.47057C16.5232 4.00628 16.9919 4.16891 17.8529 4.16891H20.9428C21.8899 4.16891 22.4352 4.67592 22.4352 5.67081V15.5241C22.4352 16.5191 21.8899 17.026 20.9428 17.026H3.50343ZM12.2279 15.6485C15.117 15.6485 17.4416 13.3335 17.4416 10.4157C17.4416 7.50754 15.1265 5.19252 12.2279 5.19252C9.32933 5.19252 7.00471 7.50754 7.00471 10.4157C7.00471 13.3335 9.32933 15.6485 12.2279 15.6485ZM17.8338 6.8953C17.8338 7.56495 18.3886 8.09108 19.0391 8.09108C19.6801 8.08153 20.2254 7.55539 20.2254 6.8953C20.2254 6.26395 19.6801 5.70906 19.0391 5.70906C18.3886 5.70906 17.8338 6.26395 17.8338 6.8953ZM12.2279 14.1944C10.152 14.1944 8.44922 12.5203 8.44922 10.4157C8.44922 8.3207 10.1424 6.63703 12.2279 6.63703C14.3134 6.63703 15.9971 8.3207 15.9971 10.4157C15.9971 12.5203 14.3134 14.1944 12.2279 14.1944Z" fill="#007AFF"/>
</g>
<defs>
<clipPath id="clip0">
<rect width="24" height="18.6122" fill="white"/>
</clipPath>
</defs>
</svg>
