<svg width="24" height="19" viewBox="0 0 24 19" fill="none" xmlns="http://www.w3.org/2000/svg">
<g clip-path="url(#clip0)">
<path d="M3.55664 18.4531H20.4512C22.502 18.4531 23.5176 17.4375 23.5176 15.4258V3.50196C23.5176 1.49024 22.502 0.474609 20.4512 0.474609H3.55664C1.51562 0.474609 0.490234 1.48047 0.490234 3.50196V15.4258C0.490234 17.4473 1.51562 18.4531 3.55664 18.4531ZM16.711 9.43945C16.2715 9.04885 15.7637 8.84375 15.2364 8.84375C14.6992 8.84375 14.2207 9.0293 13.7715 9.4297L9.3574 13.375L7.5508 11.7344C7.1406 11.373 6.6914 11.1777 6.2324 11.1777C5.79295 11.1777 5.3828 11.3633 4.97265 11.7246L2.0625 14.3516V3.58008C2.0625 2.56446 2.59961 2.04687 3.57617 2.04687H20.4317C21.3985 2.04687 21.9453 2.56446 21.9453 3.58008V14.3614L16.711 9.43945ZM7.7656 9.5469C9.0254 9.5469 10.0605 8.5117 10.0605 7.2422C10.0605 5.9824 9.0254 4.9375 7.7656 4.9375C6.4961 4.9375 5.46095 5.9824 5.46095 7.2422C5.46095 8.5117 6.4961 9.5469 7.7656 9.5469Z" fill="#007AFF"/>
</g>
<defs>
<clipPath id="clip0">
<rect width="24" height="18.5" fill="white"/>
</clipPath>
</defs>
</svg>
